<!-- Generated by IcoMoon.io -->
<svg version="1.1" xmlns="http://www.w3.org/2000/svg" width="32" height="32" viewBox="0 0 32 32">
<title>cargo-truck</title>
<path d="M32 17.351c0-0.028-0.002-0.056-0.007-0.084l-1.13-6.79c-0.041-0.246-0.253-0.426-0.502-0.426h-6.587v-0.984c0-0.291-0.174-0.541-0.422-0.655v-1.753c0-0.281-0.228-0.509-0.509-0.509l-22.333-0c-0.135 0-0.265 0.054-0.36 0.149s-0.149 0.225-0.149 0.36v11.624c0 0.594 0.201 1.143 0.538 1.581h-0.029c-0.281 0-0.509 0.228-0.509 0.509v0.938c0 0.739 0.601 1.341 1.341 1.341h3.297c-0.005 0.067-0.008 0.135-0.008 0.204 0 1.65 1.342 2.992 2.992 2.992s2.992-1.342 2.992-2.992c0-0.069-0.003-0.136-0.008-0.204h1.013c0-0 11.29 0 11.29 0-0.005 0.067-0.008 0.135-0.008 0.204 0 1.65 1.342 2.992 2.992 2.992s2.992-1.342 2.992-2.992c0-0.069-0.003-0.136-0.008-0.204 0 0 0.846-0 0.847 0h1.767c0.281 0 0.509-0.228 0.509-0.509v-1.77c0-0 0-0 0-0s0-0 0-0v-3.023zM29.929 11.071l1.052 6.323v2.472h-7.208v-8.794h6.156zM1.018 7.17l21.315 0v12.695h-19.734c-0.872 0-1.581-0.709-1.581-1.581v-11.114zM1.341 21.635c-0.178 0-0.323-0.145-0.323-0.323v-0.429h4.358c-0.197 0.224-0.36 0.476-0.484 0.751h-3.551zM7.622 24.83h-0c-1.088 0-1.974-0.885-1.974-1.973s0.885-1.974 1.974-1.974 1.974 0.885 1.974 1.974c0 1.088-0.885 1.973-1.973 1.973zM11.792 21.635l-0.98-0.751h12.835c-0.197 0.224-0.36 0.476-0.484 0.751h-11.371zM25.893 24.83h-0c-1.088 0-1.974-0.885-1.974-1.973s0.885-1.974 1.974-1.974c1.088 0 1.974 0.885 1.974 1.974s-0.885 1.973-1.973 1.973zM30.982 21.635h-1.086l-0.98-0.751h2.067v0.751z"></path>
<path d="M7.622 21.982c-0.482 0-0.875 0.392-0.875 0.875s0.392 0.875 0.875 0.875c0.482 0 0.875-0.392 0.875-0.875s-0.392-0.875-0.875-0.875z"></path>
<path d="M25.893 21.982c-0.482 0-0.875 0.392-0.875 0.875s0.392 0.875 0.875 0.875 0.875-0.392 0.875-0.875c0-0.482-0.392-0.875-0.875-0.875z"></path>
<path d="M26.11 17.658h3.379c0.281 0 0.509-0.228 0.509-0.509v-1.051c0-0.028-0.002-0.056-0.007-0.084l-0.626-3.761c-0.041-0.246-0.253-0.426-0.502-0.426h-2.753c-0.281 0-0.509 0.228-0.509 0.509v4.813c-0 0.281 0.228 0.509 0.509 0.509zM26.619 16.639v-1.957l2.361 1.732v0.226h-2.361z"></path>
</svg>
