<!-- Generated by IcoMoon.io -->
<svg version="1.1" xmlns="http://www.w3.org/2000/svg" width="32" height="32" viewBox="0 0 32 32">
<title>cargotruck</title>
<path d="M5.985 21.543h-0.005c-0.259 0-0.466 0.21-0.466 0.469s0.212 0.469 0.471 0.469c0.259 0 0.469-0.21 0.469-0.469s-0.21-0.469-0.469-0.469z"></path>
<path d="M9.993 21.543h-0.005c-0.259 0-0.466 0.21-0.466 0.469s0.212 0.469 0.471 0.469c0.259 0 0.469-0.21 0.469-0.469s-0.21-0.469-0.469-0.469z"></path>
<path d="M26.526 21.543h-0.005c-0.259 0-0.466 0.21-0.466 0.469s0.212 0.469 0.471 0.469c0.259 0 0.469-0.21 0.469-0.469s-0.21-0.469-0.469-0.469z"></path>
<path d="M31.569 15.876l-0.63-0.63-1.27-3.809c0.189-0.060 0.327-0.237 0.327-0.447 0-0.259-0.21-0.469-0.469-0.469h-4.541v-2.036c0-0.535-0.435-0.97-0.97-0.97h-23.046c-0.535 0-0.97 0.435-0.97 0.97v11.022c0 0.535 0.435 0.97 0.97 0.97h0.533v1.034c0 0.535 0.435 0.97 0.97 0.97h1.079c0.22 1.14 1.224 2.004 2.428 2.004 0.824 0 1.554-0.405 2.004-1.027 0.45 0.621 1.18 1.027 2.004 1.027 1.203 0 2.208-0.864 2.428-2.004h11.678c0.22 1.14 1.224 2.004 2.428 2.004 1.363 0 2.473-1.109 2.473-2.473 0-0.011-0.001-0.021-0.001-0.032h2.037c0.535 0 0.97-0.435 0.97-0.97v-4.094c0-0.393-0.153-0.762-0.431-1.040zM3.552 21.543h-1.079c-0.018 0-0.032-0.014-0.032-0.032v-1.034h1.603c-0.243 0.305-0.415 0.669-0.491 1.066zM5.98 23.547c-0.847 0-1.535-0.689-1.535-1.535 0-0.843 0.684-1.53 1.526-1.535h0.019c0.842 0.005 1.526 0.692 1.526 1.535-0 0.846-0.689 1.535-1.535 1.535zM9.988 23.547c-0.847 0-1.535-0.689-1.535-1.535 0-0.843 0.684-1.53 1.526-1.535h0.019c0.842 0.005 1.526 0.692 1.526 1.535-0 0.846-0.689 1.535-1.535 1.535zM24.094 21.543h-11.678c-0.077-0.397-0.249-0.761-0.491-1.066h9.086c0.259 0 0.469-0.21 0.469-0.469s-0.21-0.469-0.469-0.469h-20.040c-0.018 0-0.032-0.014-0.032-0.032v-11.022c0-0.018 0.014-0.032 0.032-0.032h23.046c0.018 0 0.032 0.014 0.032 0.032v11.054h-1.034c-0.259 0-0.469 0.21-0.469 0.469s0.21 0.469 0.469 0.469h1.57c-0.243 0.305-0.415 0.669-0.491 1.066zM30.046 15.531h-3.024c-0.018 0-0.032-0.014-0.032-0.032v-2.036h2.366l0.689 2.069zM26.521 23.547c-0.847 0-1.535-0.689-1.535-1.535 0-0.843 0.684-1.53 1.526-1.535h0.010c0.001 0 0.002-0 0.003-0 0.845 0.002 1.532 0.69 1.532 1.535-0 0.847-0.689 1.535-1.535 1.535zM31.063 21.010c0 0.018-0.014 0.032-0.032 0.032h-2.235c-0.378-0.883-1.255-1.503-2.275-1.503-0.003 0-0.006 0-0.010 0h-1.526v-8.049c0-0.018 0.014-0.032 0.032-0.032h3.67l0.355 1.066h-2.523c-0.259 0-0.469 0.21-0.469 0.469v2.505c0 0.535 0.435 0.97 0.97 0.97h3.814l0.070 0.070c0.101 0.101 0.156 0.235 0.156 0.377v1.12h-0.533c-0.259 0-0.469 0.21-0.469 0.469s0.21 0.469 0.469 0.469h0.533v2.036z"></path>
<path d="M22.513 17.535h-20.040c-0.259 0-0.469 0.21-0.469 0.469s0.21 0.469 0.469 0.469h20.040c0.259 0 0.469-0.21 0.469-0.469s-0.21-0.469-0.469-0.469z"></path>
</svg>
