<!-- Generated by IcoMoon.io -->
<svg version="1.1" xmlns="http://www.w3.org/2000/svg" width="32" height="32" viewBox="0 0 32 32">
<title>delivery-truck2</title>
<path fill="#000" d="M30.5 6h-19c-0.276 0-0.5 0.224-0.5 0.5v0 3.5h-6c-0.002-0-0.004-0-0.006-0-0.192 0-0.358 0.111-0.438 0.272l-0.001 0.003-3.5 7c-0.034 0.065-0.054 0.143-0.055 0.225v10c0 0.276 0.224 0.5 0.5 0.5v0h2.54c0.252 1.705 1.705 2.999 3.46 2.999s3.208-1.294 3.458-2.98l0.002-0.019h10.080c0.252 1.705 1.705 2.999 3.46 2.999s3.208-1.294 3.458-2.98l0.002-0.019h2.54c0.276 0 0.5-0.224 0.5-0.5v0-21c0-0.276-0.224-0.5-0.5-0.5v0zM7.5 30c-1.381 0-2.5-1.119-2.5-2.5s1.119-2.5 2.5-2.5c1.381 0 2.5 1.119 2.5 2.5v0c0 1.381-1.119 2.5-2.5 2.5v0zM11 27h-0.040c-0.252-1.705-1.705-2.999-3.46-2.999s-3.208 1.294-3.458 2.98l-0.002 0.019h-2.040v-9h9v9zM11 17h-8.69l3-6h5.69v6zM24.5 30c-1.381 0-2.5-1.119-2.5-2.5s1.119-2.5 2.5-2.5c1.381 0 2.5 1.119 2.5 2.5v0c0 1.381-1.119 2.5-2.5 2.5v0zM30 27h-2.040c-0.252-1.705-1.705-2.999-3.46-2.999s-3.208 1.294-3.458 2.98l-0.002 0.019h-9.040v-4h18v4zM30 22h-18v-2h18v2zM30 19h-18v-12h18v12z"></path>
<path fill="#000" d="M8 19h2v1h-2v-1z"></path>
<path fill="#000" d="M24.5 26c-0.828 0-1.5 0.672-1.5 1.5s0.672 1.5 1.5 1.5c0.828 0 1.5-0.672 1.5-1.5v0c0-0.828-0.672-1.5-1.5-1.5v0zM24.5 28c-0.276 0-0.5-0.224-0.5-0.5s0.224-0.5 0.5-0.5c0.276 0 0.5 0.224 0.5 0.5v0c0 0.276-0.224 0.5-0.5 0.5v0z"></path>
<path fill="#000" d="M7.5 26c-0.828 0-1.5 0.672-1.5 1.5s0.672 1.5 1.5 1.5c0.828 0 1.5-0.672 1.5-1.5v0c0-0.828-0.672-1.5-1.5-1.5v0zM7.5 28c-0.276 0-0.5-0.224-0.5-0.5s0.224-0.5 0.5-0.5c0.276 0 0.5 0.224 0.5 0.5v0c0 0.276-0.224 0.5-0.5 0.5v0z"></path>
<path fill="#000" d="M26.98 15.085c-0.184-2.326-1.79-4.233-3.941-4.86l-0.039-0.010v-0.715c0-0.828-0.672-1.5-1.5-1.5v0c-0.827 0.003-1.497 0.673-1.5 1.5v0.715c-2.19 0.637-3.796 2.544-3.979 4.851l-0.001 0.019c-0.598 0.205-1.020 0.763-1.020 1.418 0 0.826 0.67 1.497 1.497 1.497 0.001 0 0.002 0 0.003 0h10c0.001 0 0.002 0 0.003 0 0.826 0 1.497-0.67 1.497-1.497 0-0.656-0.422-1.213-1.009-1.415l-0.011-0.003zM21 9.5c0-0.276 0.224-0.5 0.5-0.5v0c0.001 0 0.003-0 0.004-0 0.139 0 0.264 0.060 0.351 0.155l0 0c0.089 0.085 0.145 0.204 0.145 0.337 0 0.003-0 0.006-0 0.008v-0 0.525c-0.165-0.015-0.33-0.025-0.5-0.025s-0.335 0.010-0.5 0.025v-0.525zM21.5 11c2.308 0.003 4.208 1.741 4.468 3.979l0.002 0.021h-8.94c0.262-2.259 2.163-3.997 4.47-4h0zM26.5 17h-10c-0.276 0-0.5-0.224-0.5-0.5s0.224-0.5 0.5-0.5v0h10c0.276 0 0.5 0.224 0.5 0.5s-0.224 0.5-0.5 0.5v0z"></path>
<path fill="#fff" d="M12.53 7.255h17.015v11.312h-17.015v-11.312z"></path>
</svg>
