<!-- Generated by IcoMoon.io -->
<svg version="1.1" xmlns="http://www.w3.org/2000/svg" width="32" height="32" viewBox="0 0 32 32">
<title>minibus</title>
<path d="M31.348 10.505l-3.081-3.873c-0.573-0.72-1.428-1.132-2.348-1.132h-22.919c-1.654 0-3 1.346-3 3v1.313c0 0.276 0.224 0.5 0.5 0.5s0.5-0.224 0.5-0.5v-1.313c0-1.103 0.897-2 2-2h22.919c1.102 0 1.557 0.744 2.009 1.313h-21.121c-1.209 0-2.269 0.858-2.521 2.041l-0.366 1.721c-0.341 1.605 0.883 3.113 2.521 3.113h24.559v2.063h-1.625c-0.827 0-1.5 0.673-1.5 1.5s0.673 1.5 1.5 1.5h1.625v0.25c0 1.103-0.897 2-2 2h-1.782c-0.247-1.97-1.931-3.5-3.968-3.5s-3.721 1.53-3.968 3.5h-5.407c-0.276 0-0.5 0.224-0.5 0.5s0.224 0.5 0.5 0.5h5.407c0.247 1.97 1.931 3.5 3.968 3.5s3.721-1.53 3.968-3.5h1.782c1.654 0 3-1.346 3-3v-7.627c0-0.676-0.232-1.339-0.652-1.868zM23.25 25.5c-1.654 0-3-1.346-3-3s1.346-3 3-3 3 1.346 3 3-1.346 3-3 3zM17.875 8.813h6.5v4.875h-6.5zM16.875 13.688h-5.25v-4.875h5.25zM4.898 11.782l0.366-1.721c0.154-0.724 0.803-1.249 1.543-1.249h3.818v4.875h-4.184c-1.004 0-1.751-0.925-1.543-1.905zM25.375 13.688v-4.875h3.348c2.542 3.195 2.277 2.457 2.277 4.875zM29.375 18.75c-0.276 0-0.5-0.224-0.5-0.5s0.224-0.5 0.5-0.5h1.625v1z"></path>
<path d="M0.309 12.337c0.499 0.208 0.928-0.422 0.545-0.816-0.313-0.313-0.854-0.091-0.854 0.354 0 0.196 0.116 0.382 0.309 0.462z"></path>
<path d="M8.125 18.5c-2.036 0-3.721 1.53-3.968 3.5h-1.157c-1.103 0-2-0.897-2-2v-0.813h1.438c0.276 0 0.5-0.224 0.5-0.5s-0.224-0.5-0.5-0.5h-1.438v-0.875h2.063c0.276 0 0.5-0.224 0.5-0.5s-0.224-0.5-0.5-0.5h-2.063v-2.609c0-0.276-0.224-0.5-0.5-0.5s-0.5 0.224-0.5 0.5v6.297c0 1.654 1.346 3 3 3h1.157c0.247 1.97 1.931 3.5 3.968 3.5 2.206 0 4-1.794 4-4s-1.794-4-4-4zM8.125 25.5c-1.654 0-3-1.346-3-3s1.346-3 3-3 3 1.346 3 3-1.346 3-3 3z"></path>
<path d="M8.125 21.5c-0.551 0-1 0.449-1 1s0.449 1 1 1 1-0.449 1-1-0.449-1-1-1z"></path>
<path d="M23.25 21.5c-0.551 0-1 0.449-1 1s0.449 1 1 1 1-0.449 1-1-0.449-1-1-1z"></path>
<path d="M20.875 17.313h1c0.276 0 0.5-0.224 0.5-0.5s-0.224-0.5-0.5-0.5h-1c-0.276 0-0.5 0.224-0.5 0.5s0.224 0.5 0.5 0.5z"></path>
</svg>
