<!-- Generated by IcoMoon.io -->
<svg version="1.1" xmlns="http://www.w3.org/2000/svg" width="32" height="32" viewBox="0 0 32 32">
<title>pickup-truck</title>
<path d="M29.867 21.342h-3.532c-0.239 0-0.432-0.194-0.432-0.432s0.194-0.432 0.432-0.432v0h3.533c0.222-0 0.401-0.18 0.402-0.402v-1.358c-0.002-1.751-1.421-3.17-3.172-3.172h-1.461c0 0 0 0-0 0-0.183 0-0.339-0.113-0.402-0.274l-0.001-0.003-2.241-5.814c-0.156-0.375-0.52-0.633-0.944-0.633-0.001 0-0.002 0-0.003 0h-4.424c-0.353 0.001-0.639 0.287-0.64 0.64v5.652c0 0.239-0.194 0.432-0.432 0.432v0h-14.361c-0.22 0.001-0.398 0.177-0.402 0.396v0l-0.057 4.128c-0 0.002-0 0.003-0 0.005 0 0.222 0.18 0.402 0.402 0.402h1.713c0.239 0 0.432 0.194 0.432 0.432s-0.194 0.432-0.432 0.432v0h-1.713c-0.7-0-1.267-0.567-1.267-1.267 0-0.006 0-0.012 0-0.018v0.001l0.057-4.128c0.013-0.691 0.574-1.246 1.266-1.249h13.929v-5.219c0-0.831 0.674-1.504 1.504-1.505h4.424c0.001 0 0.002 0 0.004 0 0.786 0 1.46 0.481 1.742 1.165l0.005 0.012 2.137 5.545h1.163c2.229 0.002 4.036 1.808 4.038 4.037v1.358c-0.001 0.7-0.568 1.267-1.268 1.267v0z"></path>
<path d="M20.934 21.342h-11.69c-0.239 0-0.432-0.194-0.432-0.432s0.194-0.432 0.432-0.432v0h11.69c0.239 0 0.432 0.194 0.432 0.432s-0.194 0.432-0.432 0.432v0z"></path>
<path d="M25.638 15.547h-6.265c-0.671-0.001-1.215-0.545-1.216-1.215v-3.661c0.001-0.671 0.545-1.215 1.215-1.216h4.264c0.183 0 0.339 0.114 0.402 0.275l0.001 0.003 2.003 5.227c0.018 0.046 0.029 0.099 0.029 0.155 0 0.239-0.193 0.432-0.432 0.432h-0zM19.373 10.32c-0.001-0-0.003-0-0.005-0-0.191 0-0.346 0.155-0.346 0.346 0 0.002 0 0.003 0 0.005v-0 3.661c-0 0.001-0 0.003-0 0.005 0 0.191 0.155 0.346 0.346 0.346 0.002 0 0.003 0 0.005-0h5.636l-1.671-4.362z"></path>
<path d="M23.633 24.043c-1.73 0-3.132-1.402-3.132-3.132s1.402-3.132 3.132-3.132c1.73 0 3.132 1.402 3.132 3.132v0c-0.002 1.729-1.403 3.129-3.131 3.132h-0zM23.633 18.645c-1.252 0-2.267 1.015-2.267 2.267s1.015 2.267 2.267 2.267c1.252 0 2.267-1.015 2.267-2.267v0c-0.001-1.252-1.015-2.266-2.267-2.268h-0z"></path>
<path d="M23.633 22.3c-0.767 0-1.389-0.622-1.389-1.389s0.622-1.389 1.389-1.389c0.767 0 1.389 0.622 1.389 1.389v0c-0.001 0.767-0.622 1.388-1.389 1.389h-0zM23.633 20.387c-0.289 0-0.524 0.235-0.524 0.524s0.235 0.524 0.524 0.524c0.289 0 0.524-0.235 0.524-0.524v0c-0-0.289-0.235-0.524-0.524-0.524h-0z"></path>
<path d="M30.703 19.143h-1.411c-0.483-0-0.874-0.392-0.875-0.874v-0.749c0-0 0-0 0-0 0-0.354 0.211-0.658 0.513-0.795l0.006-0.002 0.958-0.432c0.050-0.022 0.109-0.035 0.171-0.035 0.239 0 0.432 0.194 0.432 0.432 0 0.171-0.1 0.32-0.244 0.39l-0.003 0.001-0.961 0.435-0.006 0.757 1.419 0.009c0.239 0 0.432 0.194 0.432 0.432s-0.194 0.432-0.432 0.432v0z"></path>
<path d="M16.551 21.343c-0.239 0-0.432-0.194-0.432-0.432v0-5.795c0-0.239 0.194-0.432 0.432-0.432s0.432 0.194 0.432 0.432v0 5.795c0 0.239-0.194 0.432-0.432 0.432v0z"></path>
<path d="M6.545 24.043c-1.73 0-3.132-1.402-3.132-3.132s1.402-3.132 3.132-3.132c1.73 0 3.132 1.402 3.132 3.132v0c-0.002 1.729-1.403 3.129-3.131 3.132h-0zM6.545 18.645c-1.252 0-2.267 1.015-2.267 2.267s1.015 2.267 2.267 2.267c1.252 0 2.267-1.015 2.267-2.267v0c-0.001-1.252-1.015-2.266-2.267-2.268h-0z"></path>
<path d="M6.545 22.3c-0.767 0-1.389-0.622-1.389-1.389s0.622-1.389 1.389-1.389c0.767 0 1.389 0.622 1.389 1.389v0c-0.001 0.767-0.622 1.388-1.389 1.389h-0zM6.545 20.387c-0.289 0-0.524 0.235-0.524 0.524s0.235 0.524 0.524 0.524c0.289 0 0.524-0.235 0.524-0.524v0c-0-0.289-0.235-0.524-0.524-0.524h-0z"></path>
</svg>
