<!-- Generated by IcoMoon.io -->
<svg version="1.1" xmlns="http://www.w3.org/2000/svg" width="32" height="32" viewBox="0 0 32 32">
<title>truck-2</title>
<path fill="#000" d="M31.978 16.68l-1.422-4.741c-0.208-0.692-0.833-1.157-1.556-1.157h-3.048c-0.286 0-0.518 0.232-0.518 0.518v1.14h-1.175v-2.73c0-0.324-0.264-0.587-0.587-0.587h-23.084c-0.324 0-0.587 0.264-0.587 0.587v9.261c0 0.324 0.264 0.587 0.587 0.587h0.518v1.14c0 0.286 0.232 0.518 0.518 0.518h3.968c0.233 0.951 1.092 1.659 2.114 1.659 0.664 0 1.259-0.299 1.659-0.769 0.4 0.47 0.995 0.769 1.659 0.769 1.022 0 1.881-0.708 2.114-1.659h5.243c0.183 0.329 0.534 0.553 0.937 0.553h2.765c0.403 0 0.754-0.224 0.937-0.553h1.372c0.233 0.951 1.092 1.659 2.114 1.659s1.881-0.708 2.114-1.659h2.862c0.286 0 0.518-0.232 0.518-0.518v-3.87c0-0.050-0.007-0.101-0.022-0.149zM30.785 16.311h-1.515c-0.629 0-1.14-0.512-1.14-1.14v-1.693h1.805l0.85 2.834zM24.391 20.181h-1.238v-0.587c0-0.012-0.001-0.023-0.002-0.035h1.5c-0.117 0.19-0.206 0.399-0.261 0.622zM25.434 13.477v5.045h-1.175v-5.045h1.175zM1.037 16.242h19.241l-0.221 0.221c-0.202 0.203-0.202 0.531 0 0.733 0.101 0.101 0.234 0.152 0.366 0.152s0.265-0.051 0.366-0.152l1.106-1.106c0.202-0.203 0.202-0.531 0-0.733l-1.106-1.106c-0.202-0.202-0.531-0.202-0.733 0s-0.202 0.531 0 0.733l0.221 0.221h-19.241v-5.045h22.186v8.363h-22.186v-2.281zM18.246 19.594v0.587h-5.108c-0.055-0.223-0.143-0.432-0.261-0.622h5.371c-0 0.012-0.002 0.023-0.002 0.035zM2.143 19.559h3.71c-0.117 0.19-0.206 0.399-0.261 0.622h-3.449v-0.622zM7.706 21.84c-0.629 0-1.14-0.512-1.14-1.14s0.512-1.14 1.14-1.14 1.14 0.512 1.14 1.14-0.512 1.14-1.14 1.14zM11.024 21.84c-0.629 0-1.14-0.512-1.14-1.14s0.512-1.14 1.14-1.14 1.14 0.512 1.14 1.14-0.512 1.14-1.14 1.14zM22.082 20.734h-2.765c-0.019 0-0.035-0.016-0.035-0.035v-1.106c0-0.019 0.015-0.035 0.035-0.035h2.765c0.019 0 0.035 0.016 0.035 0.035v1.106c0 0.019-0.015 0.035-0.035 0.035zM26.505 21.84c-0.629 0-1.14-0.512-1.14-1.14s0.512-1.14 1.14-1.14 1.14 0.512 1.14 1.14-0.512 1.14-1.14 1.14zM28.62 20.181c-0.233-0.951-1.092-1.659-2.114-1.659-0.012 0-0.023 0.001-0.035 0.001v-6.705h2.529c0.261 0 0.488 0.168 0.563 0.419l0.061 0.203h-2.013c-0.286 0-0.518 0.232-0.518 0.518v2.212c0 1.2 0.977 2.177 2.177 2.177h1.693v0.622h-0.587c-0.286 0-0.518 0.232-0.518 0.518s0.232 0.518 0.518 0.518h0.587v1.175h-2.344z"></path>
<path fill="#fff" d="M1.106 14.065h21.149v3.317h-21.149v-3.317z"></path>
<path fill="#fff" d="M1.058 14.7h2.962v2.534h-2.962v-2.534z"></path>
<path fill="#fff" d="M1.025 14.966h4.712v2.042h-4.712v-2.042z"></path>
<path fill="none" stroke="#000" stroke-linejoin="miter" stroke-linecap="butt" stroke-miterlimit="4" stroke-width="0.9676" d="M9.428 20.705h6.942"></path>
<path fill="none" stroke="#fff" stroke-linejoin="miter" stroke-linecap="butt" stroke-miterlimit="4" stroke-width="0.4838" d="M11.989 19.802h5.893v0.062h-5.893v-0.062z"></path>
<path fill="none" stroke="#fff" stroke-linejoin="miter" stroke-linecap="butt" stroke-miterlimit="4" stroke-width="0.4838" d="M11.646 19.939h6.356v0.026h-6.356v-0.026z"></path>
<path fill="#fff" d="M10.953 19.558h4.502v0.659h-4.502v-0.659z"></path>
<path fill="#fff" d="M9.216 21.193h6.016v0.841h-6.016v-0.841z"></path>
<path fill="#000" stroke="#fff" stroke-linejoin="miter" stroke-linecap="butt" stroke-miterlimit="4" stroke-width="0.4838" d="M9.615 19.785h4.206v0.182h-4.206v-0.182z"></path>
<path fill="#fff" d="M9.93 20.326h2.956v0.591h-2.956v-0.591z"></path>
<path fill="#000" stroke="#000" stroke-linejoin="miter" stroke-linecap="butt" stroke-miterlimit="4" stroke-width="0.4838" d="M9.934 20.509h4.592v0.432h-4.592v-0.432z"></path>
<path fill="#fff" d="M9.235 21.823h9.032v1.463h-9.032v-1.463z"></path>
<path fill="none" stroke="#000" stroke-linejoin="miter" stroke-linecap="butt" stroke-miterlimit="4" stroke-width="0.9676" d="M9.349 20.809c0 0.907-0.744 1.642-1.661 1.642s-1.661-0.735-1.661-1.642c0-0.907 0.744-1.642 1.661-1.642s1.661 0.735 1.661 1.642z"></path>
<path fill="#fff" stroke="#000" stroke-linejoin="miter" stroke-linecap="butt" stroke-miterlimit="4" stroke-width="0.4838" d="M9.948 20.461h3.84v0.183h-3.84v-0.183z"></path>
<path fill="none" stroke="#000" stroke-linejoin="miter" stroke-linecap="butt" stroke-miterlimit="4" stroke-width="0.4838" d="M9.409 19.313h4.692"></path>
<path fill="none" stroke="#000" stroke-linejoin="miter" stroke-linecap="butt" stroke-miterlimit="4" stroke-width="0.4838" d="M9.552 20.446h8.877"></path>
<path fill="none" stroke="#000" stroke-linejoin="miter" stroke-linecap="butt" stroke-miterlimit="4" stroke-width="0.4838" d="M9.568 20.985h9.701"></path>
</svg>
